<svg id="visual" viewBox="0 0 900 600" width="900" height="600" xmlns="http://www.w3.org/2000/svg" xmlns:xlink="http://www.w3.org/1999/xlink" version="1.1"><rect x="0" y="0" width="900" height="600" fill="#140021"></rect><path d="M0 307L60 307L60 376L120 376L120 279L180 279L180 349L240 349L240 357L300 357L300 278L360 278L360 374L420 374L420 238L480 238L480 235L540 235L540 289L600 289L600 318L660 318L660 293L720 293L720 344L780 344L780 387L840 387L840 342L900 342L900 378L900 0L900 0L840 0L840 0L780 0L780 0L720 0L720 0L660 0L660 0L600 0L600 0L540 0L540 0L480 0L480 0L420 0L420 0L360 0L360 0L300 0L300 0L240 0L240 0L180 0L180 0L120 0L120 0L60 0L60 0L0 0Z" fill="#560090"></path><path d="M0 273L60 273L60 254L120 254L120 192L180 192L180 192L240 192L240 187L300 187L300 203L360 203L360 296L420 296L420 275L480 275L480 247L540 247L540 212L600 212L600 263L660 263L660 215L720 215L720 219L780 219L780 234L840 234L840 212L900 212L900 299L900 0L900 0L840 0L840 0L780 0L780 0L720 0L720 0L660 0L660 0L600 0L600 0L540 0L540 0L480 0L480 0L420 0L420 0L360 0L360 0L300 0L300 0L240 0L240 0L180 0L180 0L120 0L120 0L60 0L60 0L0 0Z" fill="#6c00b4"></path><path d="M0 158L60 158L60 183L120 183L120 189L180 189L180 176L240 176L240 177L300 177L300 150L360 150L360 205L420 205L420 157L480 157L480 144L540 144L540 125L600 125L600 205L660 205L660 131L720 131L720 190L780 190L780 170L840 170L840 154L900 154L900 221L900 0L900 0L840 0L840 0L780 0L780 0L720 0L720 0L660 0L660 0L600 0L600 0L540 0L540 0L480 0L480 0L420 0L420 0L360 0L360 0L300 0L300 0L240 0L240 0L180 0L180 0L120 0L120 0L60 0L60 0L0 0Z" fill="#8200d9"></path><path d="M0 129L60 129L60 54L120 54L120 140L180 140L180 112L240 112L240 140L300 140L300 91L360 91L360 123L420 123L420 102L480 102L480 80L540 80L540 98L600 98L600 112L660 112L660 60L720 60L720 79L780 79L780 110L840 110L840 82L900 82L900 95L900 0L900 0L840 0L840 0L780 0L780 0L720 0L720 0L660 0L660 0L600 0L600 0L540 0L540 0L480 0L480 0L420 0L420 0L360 0L360 0L300 0L300 0L240 0L240 0L180 0L180 0L120 0L120 0L60 0L60 0L0 0Z" fill="#9900ff"></path></svg>